# xmcd
#
# Track frame offsets: 
#        182
#        16385
#        32452
#        51800
#        66577
#        79457
#        98530
#        113440
#        126940
#        141580
#        157235
#        167942
#
# Disc length: 2618 seconds
#
# Revision: 1
# Processed by: cddbd v1.4PL0 Copyright (c) Steve Scherf et al.
# Submitted via: ExactAudioCopy v0.90b4
#
DISCID=a70a380c
DTITLE=Michal Tucny - Jak chcete zit bez koni
DYEAR=1984
DGENRE=Country
TTITLE0=Abych tu zil
TTITLE1=Vanek s vuni burcaku
TTITLE2=Vsichni jsou uz v Mexiku
TTITLE3=Dilema
TTITLE4=Jen nic nesmis dat na my zpivani
TTITLE5=Mesicku
TTITLE6=Nevidim duvod
TTITLE7=Vltavsky drak
TTITLE8=Nejlip umim slibovat
TTITLE9=Chtel bych byt medvidkem
TTITLE10=Tenhle druh pisni
TTITLE11=Jak chcete zit bez koni
EXTD=
EXTT0=
EXTT1=
EXTT2=
EXTT3=
EXTT4=
EXTT5=
EXTT6=
EXTT7=
EXTT8=
EXTT9=
EXTT10=
EXTT11=
PLAYORDER=
